HIERARCHY
ROOT Hips
{
	OFFSET 0.000000 0.000000 0.000000
	CHANNELS 6 Xposition Yposition Zposition Xrotation Yrotation Zrotation
	JOINT LeftUpLeg_virtual
	{
		OFFSET 0.000000 0.000000 0.000000
		CHANNELS 3 Xrotation Yrotation Zrotation
		JOINT LeftUpLeg
		{
			OFFSET 11.394100 -6.187798 -0.413800
			CHANNELS 3 Xrotation Yrotation Zrotation
			JOINT LeftLeg
			{
				OFFSET 0.430247 -32.302673 3.732800
				CHANNELS 3 Xrotation Yrotation Zrotation
				JOINT LeftFoot
				{
					OFFSET -0.430247 -48.264931 -6.423300
					CHANNELS 3 Xrotation Yrotation Zrotation
					JOINT LeftToeBase
					{
						OFFSET 4.230900 -16.068199 23.438400
						CHANNELS 3 Xrotation Yrotation Zrotation
						JOINT LeftToe_End
						{
							OFFSET 4.510700 0.695400 19.974600
							CHANNELS 3 Xrotation Yrotation Zrotation
							End Site
							{
								OFFSET 0 0 0
							}
						}
					}
				}
			}
		}
	}
	JOINT RightUpLeg_virtual
	{
		OFFSET 0.000000 0.000000 0.000000
		CHANNELS 3 Xrotation Yrotation Zrotation
		JOINT RightUpLeg
		{
			OFFSET -11.333700 -6.187798 -0.413800
			CHANNELS 3 Xrotation Yrotation Zrotation
			JOINT RightLeg
			{
				OFFSET -0.430392 -32.302628 3.733000
				CHANNELS 3 Xrotation Yrotation Zrotation
				JOINT RightFoot
				{
					OFFSET 0.430392 -48.264973 -6.423500
					CHANNELS 3 Xrotation Yrotation Zrotation
					JOINT RightToeBase
					{
						OFFSET -4.230900 -16.068199 23.438400
						CHANNELS 3 Xrotation Yrotation Zrotation
						JOINT RightToe_End
						{
							OFFSET -4.510700 0.695400 19.974600
							CHANNELS 3 Xrotation Yrotation Zrotation
							End Site
							{
								OFFSET 0 0 0
							}
						}
					}
				}
			}
		}
	}
	JOINT Spine_virtual
	{
		OFFSET 0.000000 0.000000 0.000000
		CHANNELS 3 Xrotation Yrotation Zrotation
		JOINT Spine
		{
			OFFSET -0.002400 12.777504 0.315300
			CHANNELS 3 Xrotation Yrotation Zrotation
			JOINT Spine1
			{
				OFFSET -0.002067 5.816869 0.032633
				CHANNELS 3 Xrotation Yrotation Zrotation
				JOINT Spine1_split
				{
					OFFSET -0.002067 5.816869 0.032633
					CHANNELS 3 Xrotation Yrotation Zrotation
					JOINT Spine2
					{
						OFFSET -0.002067 5.816869 0.032633
						CHANNELS 3 Xrotation Yrotation Zrotation
						JOINT Neck_virtual
						{
							OFFSET 0.000000 0.000000 0.000000
							CHANNELS 3 Xrotation Yrotation Zrotation
							JOINT Neck
							{
								OFFSET -0.003700 21.199493 -0.826900
								CHANNELS 3 Xrotation Yrotation Zrotation
								JOINT Head
								{
									OFFSET 0.000000 20.442200 4.834800
									CHANNELS 3 Xrotation Yrotation Zrotation
									JOINT HeadTop_End
									{
										OFFSET 0.000000 34.668396 4.968400
										CHANNELS 3 Xrotation Yrotation Zrotation
										End Site
										{
											OFFSET 0 0 0
										}
									}
								}
							}
						}
						JOINT LeftShoulder_virtual
						{
							OFFSET 0.000000 0.000000 0.000000
							CHANNELS 3 Xrotation Yrotation Zrotation
							JOINT LeftShoulder
							{
								OFFSET 3.288150 8.794197 -1.372250
								CHANNELS 3 Xrotation Yrotation Zrotation
								JOINT LeftShoulder_split
								{
									OFFSET 3.288150 8.794197 -1.372250
									CHANNELS 3 Xrotation Yrotation Zrotation
									JOINT LeftArm
									{
										OFFSET 11.953299 -2.279007 -0.146200
										CHANNELS 3 Xrotation Yrotation Zrotation
										JOINT LeftForeArm
										{
											OFFSET 18.448900 0.000000 0.000000
											CHANNELS 3 Xrotation Yrotation Zrotation
											JOINT LeftHand
											{
												OFFSET 29.527798 0.000000 0.000000
												CHANNELS 3 Xrotation Yrotation Zrotation
												End Site
												{
													OFFSET 0 0 0
												}
											}
										}
									}
								}
							}
						}
						JOINT RightShoulder_virtual
						{
							OFFSET 0.000000 0.000000 0.000000
							CHANNELS 3 Xrotation Yrotation Zrotation
							JOINT RightShoulder
							{
								OFFSET -3.249400 8.794197 -1.372250
								CHANNELS 3 Xrotation Yrotation Zrotation
								JOINT RightShoulder_split
								{
									OFFSET -3.249400 8.794197 -1.372250
									CHANNELS 3 Xrotation Yrotation Zrotation
									JOINT RightArm
									{
										OFFSET -11.953299 -2.279007 -0.146200
										CHANNELS 3 Xrotation Yrotation Zrotation
										JOINT RightForeArm
										{
											OFFSET -18.448900 0.000000 0.000000
											CHANNELS 3 Xrotation Yrotation Zrotation
											JOINT RightHand
											{
												OFFSET -29.527802 0.000000 0.000000
												CHANNELS 3 Xrotation Yrotation Zrotation
												End Site
												{
													OFFSET 0 0 0
												}
											}
										}
									}
								}
							}
						}
					}
				}
			}
		}
	}
}
MOTION
Frames: 10
Frame Time: 0.03333333
189.694885 22.046345 -32.061550 0.000000 0.000000 0.000000 -123.871423 -16.588675 63.174715 -120.077731 12.601187 13.147548 115.299590 -9.467837 -0.609539 28.622920 10.719601 12.506134 12.166715 -2.034936 6.431568 0.000000 0.000000 0.000000 -125.064261 -20.414505 59.586775 -93.642474 -0.281869 1.741209 66.174124 0.592385 4.142402 7.499444 3.566393 8.374877 -19.631683 -2.452966 6.046795 0.000000 0.000000 0.000000 -133.420137 -20.452832 70.396362 13.192005 8.614549 5.709547 23.037135 5.396192 1.394313 -1.207780 0.509226 2.251737 0.000000 0.000000 0.000000 20.549925 5.220390 1.284450 53.623720 -4.976499 -7.475233 -25.417200 -16.060778 12.093629 0.000000 0.000000 0.000000 21.569058 6.484240 1.809364 1.977910 0.446265 3.645082 4.925153 -7.102274 0.411781 -35.880780 -14.344270 -4.855079 174.780252 -44.415815 177.439094 0.000000 0.000000 0.000000 18.212102 4.987467 2.968656 -1.676498 -4.757100 -3.739359 9.151799 -5.216179 5.519355 -75.477927 0.295226 44.325455 -165.052191 59.652939 160.554743 0.000000 0.000000 0.000000 
192.393463 19.071991 -33.592251 0.000000 0.000000 0.000000 -125.891397 -4.445412 72.573663 -117.494990 19.967713 18.478054 111.036159 -8.616729 -2.522770 23.324119 14.257243 14.820752 11.473561 -2.353200 5.705010 0.000000 0.000000 0.000000 -124.911005 -8.398540 66.295039 -95.471735 -0.649882 -2.434078 72.447974 0.263847 6.100308 2.741670 5.013998 10.981192 -17.694254 -1.033240 3.788096 0.000000 0.000000 0.000000 -134.394873 -9.585062 80.220865 14.217397 6.942833 4.905365 22.589295 5.857738 2.068856 -0.194104 -0.636303 2.506859 0.000000 0.000000 0.000000 19.690001 5.699960 2.006176 51.940044 -4.726748 -8.893679 -21.816519 -13.385735 13.071518 0.000000 0.000000 0.000000 21.658221 6.439922 2.392448 1.294296 1.885664 1.862347 5.016946 -6.766805 -0.305972 -23.393420 -17.730051 -10.262567 172.788172 -49.032214 176.069682 0.000000 0.000000 0.000000 17.824461 5.370981 4.059169 -2.614668 -4.854516 -5.988889 8.190687 -1.412364 4.152432 -59.899892 -6.290503 43.710308 -157.399838 71.537352 153.730346 0.000000 0.000000 0.000000 
195.605087 17.357567 -35.272022 0.000000 0.000000 0.000000 -130.493592 6.131993 84.215058 -114.653727 28.799841 24.701509 106.459433 -6.271806 -4.136956 18.623882 17.844537 16.121109 9.655166 -2.322016 4.290338 0.000000 0.000000 0.000000 -127.028309 2.814442 74.498253 -94.841445 -1.013890 -5.997410 73.984602 -0.573301 7.793520 -0.589949 5.643724 13.691175 -15.547276 0.246348 1.220711 0.000000 0.000000 0.000000 -137.558794 0.399313 91.274967 14.998588 5.349366 3.677354 21.866912 6.260681 2.462103 0.457628 -1.639765 2.409009 0.000000 0.000000 0.000000 19.455905 6.113469 2.527643 49.549276 -3.918327 -9.167453 -19.811432 -11.960230 14.024870 0.000000 0.000000 0.000000 21.973926 6.428163 2.728897 0.767200 2.062015 -1.194944 4.981298 -5.332192 0.776041 -14.331263 -19.361585 -14.085596 170.803948 -56.524515 173.785680 0.000000 0.000000 0.000000 17.649494 5.744477 4.944755 -3.202847 -2.723902 -6.809160 7.400069 2.937839 3.028894 -45.911879 -7.203725 43.509552 -69.200342 83.751793 66.746992 0.000000 0.000000 0.000000 
199.748917 16.843311 -36.169437 0.000000 0.000000 0.000000 -137.438419 14.898307 97.975676 -113.176556 36.997161 30.279140 103.502651 -2.787131 -5.083644 14.886460 21.068644 17.302558 7.233066 -1.978796 2.384113 0.000000 0.000000 0.000000 -131.855859 12.260917 84.578089 -90.696962 -0.608879 -8.049213 71.213041 -2.295895 9.110958 -2.127360 5.396580 15.550037 -13.488106 1.054855 -0.712939 0.000000 0.000000 0.000000 -143.069678 9.072831 103.998660 15.371998 4.263248 2.183125 20.940938 6.676956 2.507654 0.235590 -1.811137 1.835151 0.000000 0.000000 0.000000 19.821019 6.549565 2.719247 46.320683 -2.360212 -7.870275 -20.240251 -11.828098 15.167741 0.000000 0.000000 0.000000 22.311627 6.610125 2.710405 0.360597 1.219079 -4.678920 4.109287 -4.277235 2.948582 -7.396295 -19.044512 -16.439009 168.061408 -65.821720 169.974927 0.000000 0.000000 0.000000 17.509719 6.077935 5.423986 -3.523964 0.382288 -6.434819 7.584919 6.852443 1.615822 -35.751276 -4.949310 41.946316 -8.947655 65.558806 7.964895 0.000000 0.000000 0.000000 
204.881424 17.510635 -37.054859 0.000000 0.000000 0.000000 -146.456154 20.908191 113.044214 -114.576676 42.689577 35.228842 103.186113 1.476986 -6.145103 10.756783 22.490986 19.800356 4.163787 -1.553100 0.363612 0.000000 0.000000 0.000000 -139.404625 19.147566 96.489543 -84.375321 1.008392 -8.732442 66.263531 -3.903746 9.381953 -1.283134 5.372998 17.187567 -12.258512 1.640626 -1.767848 0.000000 0.000000 0.000000 -150.593691 15.256097 117.138168 15.395958 3.940778 0.711577 19.944709 7.127722 2.324754 -0.556964 -1.721661 1.965418 0.000000 0.000000 0.000000 20.659779 6.975878 2.570768 41.699538 -0.133210 -5.468354 -23.202923 -12.264884 16.404098 0.000000 0.000000 0.000000 22.409420 7.016752 2.402254 -0.046707 -0.507245 -7.732920 1.872490 -3.394379 4.038827 -1.961010 -18.053105 -17.639133 161.893939 -75.180575 162.295950 0.000000 0.000000 0.000000 17.373254 6.388001 5.492477 -3.578355 3.400791 -5.136669 8.175971 9.160357 -0.504907 -30.357332 -2.484434 39.212072 -1.858374 46.867440 2.311584 0.000000 0.000000 0.000000 
210.969925 19.370636 -37.375828 0.000000 0.000000 0.000000 -156.412479 23.979314 127.591622 -118.362903 44.528387 38.237482 106.087933 4.769474 -6.857168 8.608433 20.922449 20.838325 -0.307517 -1.255830 -0.967694 0.000000 0.000000 0.000000 -148.994307 23.598688 110.070869 -78.696545 4.066590 -8.899975 61.745511 -4.441768 8.763926 2.614185 6.189777 19.847350 -13.338677 2.096354 -2.040124 0.000000 0.000000 0.000000 -159.144296 18.781594 130.066008 15.307868 4.406663 -0.553096 19.185706 7.527044 2.096660 -1.426052 -1.898270 2.289251 0.000000 0.000000 0.000000 21.950304 7.369692 2.247279 35.523544 2.545025 -3.294324 -28.382749 -12.288393 17.472524 0.000000 0.000000 0.000000 22.311501 7.506683 2.034052 -0.462726 -2.371115 -9.811258 -0.465543 -1.873156 3.102235 2.748885 -17.573848 -17.160751 140.746389 -83.088514 139.395500 0.000000 0.000000 0.000000 17.256268 6.616557 5.372795 -3.449513 5.607657 -3.576400 9.057025 10.318106 -3.244779 -30.852323 -2.091085 36.605169 0.605845 34.109425 0.981339 0.000000 0.000000 0.000000 
217.597900 22.303429 -37.326443 0.000000 0.000000 0.000000 -165.838605 24.578079 140.143092 -122.915142 42.014836 38.247625 110.675634 4.528957 -5.649362 11.796625 15.405280 15.522925 -6.845648 -1.166425 -0.441429 0.000000 0.000000 0.000000 -159.331033 25.741637 124.277204 -76.293937 7.945236 -9.549377 60.994088 -3.046675 7.506821 8.380723 8.382983 23.956023 -16.771714 2.463490 -1.777771 0.000000 0.000000 0.000000 -167.431296 19.802450 141.542447 15.323453 5.481703 -1.376499 18.804341 7.848232 2.035550 -1.663601 -1.926054 2.653806 0.000000 0.000000 0.000000 23.547700 7.703400 1.977483 28.206487 5.883950 -2.867425 -35.048484 -10.797364 17.953338 0.000000 0.000000 0.000000 22.360957 7.930184 1.841924 -0.858739 -4.052891 -10.495346 -2.229151 0.519758 0.902426 6.165402 -18.253230 -15.260231 56.557627 -84.630716 53.660346 0.000000 0.000000 0.000000 17.248050 6.747908 5.259563 -3.162912 7.110433 -2.172362 9.797695 10.622398 -5.661084 -36.540207 -3.792157 34.857082 1.641512 27.619075 0.702232 0.000000 0.000000 0.000000 
224.386597 25.923733 -37.715267 0.000000 0.000000 0.000000 -174.005927 23.387181 150.344526 -126.965444 36.850930 36.261819 115.832837 1.614790 -3.168672 16.720071 6.058015 6.882516 -12.331377 -1.784097 1.750254 0.000000 0.000000 0.000000 -169.062413 25.849918 137.843312 -77.614588 11.699772 -10.530930 64.804172 -0.575801 5.942259 12.883664 10.922208 28.077226 -20.728239 2.559238 -1.052057 0.000000 0.000000 0.000000 -174.460121 18.944778 150.901856 15.533083 6.806431 -1.698831 18.850216 8.028299 2.215803 -1.369163 -2.225801 3.031427 0.000000 0.000000 0.000000 25.241056 7.879181 1.931189 20.389844 10.011806 -5.099937 -41.670523 -6.814376 17.899735 0.000000 0.000000 0.000000 22.584403 8.130881 1.976984 -1.186753 -5.453895 -9.861740 -3.585729 3.947529 -1.784720 6.792366 -19.915848 -13.004385 22.340671 -77.528890 18.465384 0.000000 0.000000 0.000000 17.488845 6.816192 5.318896 -2.710575 8.205706 -0.928646 9.570911 9.840844 -6.453683 -45.869921 -7.168968 33.834128 1.844343 25.657739 0.955219 0.000000 0.000000 0.000000 
231.279022 29.670261 -38.132732 0.000000 0.000000 0.000000 179.718328 21.398423 158.439543 -128.639687 30.637657 32.168497 121.413210 -2.371702 -0.322899 19.404192 -4.039724 -0.952572 -13.116030 -3.009120 4.327215 0.000000 0.000000 0.000000 -176.969751 24.225551 149.592454 -81.182624 15.160923 -11.469009 72.681744 1.116564 4.707014 14.263186 11.425793 30.379694 -23.434972 2.001564 0.109438 0.000000 0.000000 0.000000 -179.976796 17.175694 158.485701 15.793057 8.010518 -1.667563 19.170183 8.049212 2.598036 -0.280519 -2.736603 2.104577 0.000000 0.000000 0.000000 26.646764 7.930419 2.183701 13.448444 14.939762 -10.015379 -47.147819 -0.572172 17.487905 0.000000 0.000000 0.000000 23.062885 8.091623 2.388975 -1.431547 -5.895288 -8.332592 -4.273861 7.657714 -3.978148 4.349138 -22.464709 -11.753982 13.608335 -70.060720 9.695923 0.000000 0.000000 0.000000 18.046430 6.795339 5.512148 -2.282212 9.108500 -0.098932 9.212127 8.380660 -5.880145 -55.698171 -10.720514 32.787620 1.570331 26.206696 1.519395 0.000000 0.000000 0.000000 
238.008316 33.122459 -39.633785 0.000000 0.000000 0.000000 175.379792 18.917064 164.952456 -128.614347 23.584718 27.749368 127.208667 -6.645549 2.774325 19.242521 -12.400211 -7.629180 -9.021742 -4.145652 6.246542 0.000000 0.000000 0.000000 177.645065 21.484474 158.815996 -85.622500 17.826167 -12.242303 82.658956 1.350853 4.156579 12.488936 9.221364 29.854470 -23.196332 0.922595 1.400541 0.000000 0.000000 0.000000 176.171097 15.206161 164.386780 15.836719 8.843822 -1.344579 19.415101 7.945593 3.073300 0.944807 -2.856234 0.874206 0.000000 0.000000 0.000000 27.380826 7.894830 2.652985 8.356491 20.088201 -16.744099 -50.848846 6.908092 17.012572 0.000000 0.000000 0.000000 23.565093 7.922636 2.972891 -1.640622 -5.558677 -6.233109 -5.044753 10.766723 -5.607337 -0.867614 -24.902989 -13.172864 9.586771 -65.122855 6.410860 0.000000 0.000000 0.000000 18.722279 6.787208 5.688997 -1.999483 10.135306 0.602641 8.362760 6.363379 -4.453005 -63.154647 -12.729641 31.674162 0.998777 26.959204 2.253658 0.000000 0.000000 0.000000 
